# xmcd
# 
# Track frame offsets:
#   150
#   21200
#   39890
#   57340
#   69127
#   84052
#   98655
#   113232
#   128745
#   147420
#   162247
#   180250
#   197477
#   215367
# 
# Disc length: 3131 seconds
# 
# Revision: 1
# Processed by: cddbd v1.5.1PL2 Copyright (c) Steve Scherf et al.
# Submitted via: Synapstar 1.0 
# 
DISCID=aa0c390e
DTITLE=Various Artist - SD041 - Country Hits Today
DYEAR=1900
DGENRE=Country
TTITLE0=Tim McGraw - Everywhere
TTITLE1=Deana Carter - How Do I Get There
TTITLE2=Clint Black - Nothin' But The Taillights
TTITLE3=Kevin Sharp - If You Love Somebody
TTITLE4=Bryan White - Love Is The Right Place
TTITLE5=Kenny Chesney - She's Got It All
TTITLE6=Clay Walker - Watch This
TTITLE7=Mark Chesnutt - Thank God For Believers
TTITLE8=Diamond Rio - How Your Love Makes Me Feel
TTITLE9=John Berry - Faithfully
TTITLE10=Chely Wright - Shut Up And Drive
TTITLE11=Lee Roy Parnell - You Can't Get There From Here
TTITLE12=Joe Diffie - Somethin' Like This
TTITLE13=Billy Ray Cyrus - It's All The Same To Me
EXTD=MediaType: Karaoke CD+G Producer: StarDisc
EXTT0=
EXTT1=
EXTT2=
EXTT3=
EXTT4=
EXTT5=
EXTT6=
EXTT7=
EXTT8=
EXTT9=
EXTT10=
EXTT11=
EXTT12=
EXTT13=
PLAYORDER=
